<svg viewBox="0 -6.61 122.88 122.88" fill="currentColor" xmlns="http://www.w3.org/2000/svg">
  <path fill-rule="evenodd" clip-rule="evenodd" d="M2.585 49.871H54.77V34.043h.009c.002-9.368 3.828-17.878 9.989-24.042C70.932 3.838 79.447.01 88.819.01V0h.017v.009c9.368.002 17.878 3.828 24.042 9.989 6.164 6.164 9.991 14.679 9.991 24.051h.012v18.367h-14.618V33.859h.012c-.002-5.332-2.195-10.189-5.722-13.715-3.528-3.531-8.388-5.721-13.724-5.724v.009h-.016v-.009c-5.334.002-10.191 2.19-13.72 5.717l.005.005c-3.529 3.528-5.722 8.388-5.722 13.722h.009v16.008h13.987c1.422 0 2.585 1.164 2.585 2.585v54.613c0 1.422-1.163 2.583-2.585 2.583H2.585C1.161 109.653 0 108.492 0 107.07V52.456c0-1.421 1.161-2.585 2.585-2.585zM43.957 79.753l4.098 18.908-11.232.045 3.297-19.162c-3.068-.981-5.295-3.857-5.295-7.252 0-4.202 3.411-7.613 7.614-7.613 4.202 0 7.613 3.411 7.613 7.613.001 3.683-2.619 6.756-6.095 7.461z" />
</svg>
