<svg viewBox="-13.39 0 122.88 122.88" fill="currentColor" xmlns="http://www.w3.org/2000/svg">
  <path fill-rule="evenodd" clip-rule="evenodd" d="M2.892 56.036h8.959v-1.075V37.117c0-10.205 4.177-19.484 10.898-26.207v-.009C29.473 4.177 38.754 0 48.966 0c10.204 0 19.483 4.177 26.207 10.901l.01.009c6.721 6.723 10.898 16.002 10.898 26.207v18.919h7.136c1.59 0 2.892 1.302 2.892 2.891v61.062c0 1.589-1.302 2.891-2.892 2.891H2.892c-1.59 0-2.892-1.302-2.892-2.891V58.927c0-1.589 1.302-2.891 2.892-2.891zM26.271 56.036h45.387V36.911c0-6.24-2.554-11.917-6.662-16.03l-.005.004c-4.111-4.114-9.787-6.669-16.025-6.669-6.241 0-11.917 2.554-16.033 6.665-4.109 4.113-6.662 9.79-6.662 16.03v19.125zM49.149 89.448l4.581 21.139-12.557.053 3.685-21.423c-3.431-1.1-5.918-4.315-5.918-8.111 0-4.701 3.81-8.511 8.513-8.511 4.698 0 8.511 3.81 8.511 8.511 0 4.12-2.928 7.557-6.815 8.342z" />
</svg>
