<svg viewBox="0 0 24 24" fill="none" stroke="currentColor" stroke-width="2" stroke-linecap="round" stroke-linejoin="round" xmlns="http://www.w3.org/2000/svg">
  <path d="M4 6h16M16 6l-.2706-.81193c-.2623-.78682-.3935-1.18023-.6367-1.47109-.2148-.25685-.4906-.45566-.8022-.5782C13.9376 3 13.523 3 12.6936 3h-1.3872c-.8294 0-1.244 0-1.59689.13878-.31159.12254-.58743.32135-.80222.5782-.24324.29086-.37437.68427-.63665 1.47109L8 6M18 6v10.2c0 1.6802 0 2.5202-.327 3.162-.2876.5645-.7465 1.0234-1.311 1.311C15.7202 21 14.8802 21 13.2 21h-2.4c-1.68016 0-2.52024 0-3.16197-.327-.56449-.2876-1.02343-.7465-1.31105-1.311C6 18.7202 6 17.8802 6 16.2V6m8 4v7m-4-7v7" />
</svg>
